# xmcd
#
# Track frame offsets:
# 150
# 13649
# 30023
# 43538
# 63512
# 82593
# 102003
# 115448
# 129878
# 149976
# 167043
# 213139
#
# Disc length: 4358 seconds
#
#
# Revision: 0
# Processed by: cddbd v1.5.1PL2 Copyright (c) Steve Scherf et al.
# Submitted via: FreeRIP 2.941 
#
DISCID=9211040c
DTITLE=RY COODER - CROSSROADS - A ENCRUZILHADA
DYEAR=1986
DGENRE=Blues
TTITLE0=Guitar_Instrumental - Ry Cooder
TTITLE1=Walkin' Away Blues - Ry Cooder
TTITLE2=Cotton Needs Pickin' - Crossroads Soundtrack
TTITLE3=Crossroads - Ry Cooder
TTITLE4=He Made A Woman Out Of Me - Ry Cooder
TTITLE5=Feelin' Bad Blues - Ry Cooder
TTITLE6=Nitty Gritty Mississipi - Ry Cooder
TTITLE7=Viola Lee Blues - Ry Cooder
TTITLE8=Down In Mississipi
TTITLE9=Willie Brown Blues - Ry Cooder
TTITLE10=Crossroads - Stevie Vai And Ray Cooder
TTITLE11=Blues Jam - Stevie Ray Vaughan and Buddy Guy
EXTD=
EXTT0=
EXTT1=
EXTT2=
EXTT3=
EXTT4=
EXTT5=
EXTT6=
EXTT7=
EXTT8=
EXTT9=
EXTT10=
EXTT11=
PLAYORDER=
